<?xml version="1.0" standalone="no"?>
<!DOCTYPE svg PUBLIC "-//W3C//DTD SVG 20010904//EN"
 "http://www.w3.org/TR/2001/REC-SVG-20010904/DTD/svg10.dtd">
<svg version="1.0" xmlns="http://www.w3.org/2000/svg"
 width="133.000000pt" height="133.000000pt" viewBox="0 0 133.000000 133.000000"
 preserveAspectRatio="xMidYMid meet">
<metadata>
Created by potrace 1.11, written by Peter Selinger 2001-2013
</metadata>
<g transform="translate(0.000000,133.000000) scale(0.100000,-0.100000)"
fill="#000000" stroke="none">
<path d="M370 1169 c-151 -88 -275 -165 -275 -171 0 -6 57 -45 128 -87 70 -41
127 -78 127 -81 0 -3 -59 -38 -130 -79 -72 -41 -129 -79 -128 -83 2 -5 63 -44
137 -87 l133 -78 -129 -75 c-70 -41 -128 -80 -128 -87 0 -15 540 -340 565
-341 20 0 562 312 567 326 2 6 -55 46 -127 89 -73 42 -128 81 -123 85 4 5 62
40 128 78 65 38 120 74 122 78 2 5 -58 45 -132 88 -114 68 -132 81 -117 91 9
6 70 42 135 79 96 56 116 71 105 81 -20 19 -548 327 -567 331 -9 2 -140 -69
-291 -157z m555 -26 c146 -86 264 -157 262 -158 -1 -1 -57 -34 -123 -73 l-122
-70 -133 79 c-74 43 -140 79 -147 79 -8 0 -72 -34 -143 -76 -71 -41 -133 -73
-137 -71 -109 57 -241 142 -233 150 8 8 501 296 508 297 1 0 122 -71 268 -157z
m-134 -245 c82 -48 117 -74 107 -79 -7 -4 -62 -37 -123 -72 l-109 -64 -111 65
c-60 35 -116 70 -123 76 -10 9 13 26 105 79 65 37 121 67 125 67 4 0 62 -32
129 -72z m-297 -153 c61 -36 117 -69 124 -73 10 -7 -21 -30 -108 -80 l-122
-70 -119 70 c-65 39 -119 73 -119 77 0 5 214 136 229 140 3 1 54 -28 115 -64z
m577 -17 l120 -71 -83 -48 c-46 -27 -101 -58 -124 -70 l-40 -22 -122 73 c-68
40 -121 74 -120 75 13 11 234 135 241 135 5 0 62 -32 128 -72z m-282 -159
c106 -63 119 -73 104 -84 -10 -6 -64 -38 -121 -70 l-104 -58 -36 22 c-20 12
-74 43 -119 69 -46 26 -83 49 -83 52 0 5 220 138 231 139 4 1 61 -31 128 -70z"/>
</g>
</svg>
